
<svg xmlns="http://www.w3.org/2000/svg" xmlns:xlink="http://www.w3.org/1999/xlink" width="100%" zoomAndPan="magnify" viewBox="0 0 1440 809.999993" height="auto" preserveAspectRatio="xMidYMid meet" version="1.0"><defs><clipPath id="c3fa6f45b8"><path d="M 0 360.472656 L 1440 360.472656 L 1440 428.035156 L 0 428.035156 Z M 0 360.472656 " clip-rule="nonzero"/></clipPath><clipPath id="efc6f802ce"><path d="M 0 0.472656 L 1440 0.472656 L 1440 68.035156 L 0 68.035156 Z M 0 0.472656 " clip-rule="nonzero"/></clipPath><clipPath id="47845c4984"><rect x="0" width="1440" y="0" height="69"/></clipPath><clipPath id="ba92099af4"><path d="M 1400.976562 358.457031 L 1412.480469 358.457031 L 1412.480469 430.65625 L 1400.976562 430.65625 Z M 1400.976562 358.457031 " clip-rule="nonzero"/></clipPath><clipPath id="6e609d2fb0"><path d="M 0.976562 0.457031 L 12.480469 0.457031 L 12.480469 72.65625 L 0.976562 72.65625 Z M 0.976562 0.457031 " clip-rule="nonzero"/></clipPath><clipPath id="f9fba469fd"><rect x="0" width="13" y="0" height="73"/></clipPath><clipPath id="b71820d67d"><path d="M 1300.253906 358.152344 L 1311.757812 358.152344 L 1311.757812 430.355469 L 1300.253906 430.355469 Z M 1300.253906 358.152344 " clip-rule="nonzero"/></clipPath><clipPath id="a9c8f8fea4"><path d="M 0.253906 0.152344 L 11.757812 0.152344 L 11.757812 72.355469 L 0.253906 72.355469 Z M 0.253906 0.152344 " clip-rule="nonzero"/></clipPath><clipPath id="3597e3ca09"><rect x="0" width="12" y="0" height="73"/></clipPath><clipPath id="7973a3c943"><path d="M 1199.5 358.152344 L 1211.003906 358.152344 L 1211.003906 430.355469 L 1199.5 430.355469 Z M 1199.5 358.152344 " clip-rule="nonzero"/></clipPath><clipPath id="cd82d93a92"><path d="M 0.5 0.152344 L 12.003906 0.152344 L 12.003906 72.355469 L 0.5 72.355469 Z M 0.5 0.152344 " clip-rule="nonzero"/></clipPath><clipPath id="3bc1b2e2a7"><rect x="0" width="13" y="0" height="73"/></clipPath><clipPath id="16ae59692e"><path d="M 1098.746094 358.757812 L 1110.25 358.757812 L 1110.25 430.957031 L 1098.746094 430.957031 Z M 1098.746094 358.757812 " clip-rule="nonzero"/></clipPath><clipPath id="5f7be63d34"><path d="M 0.746094 0.757812 L 12.25 0.757812 L 12.25 72.957031 L 0.746094 72.957031 Z M 0.746094 0.757812 " clip-rule="nonzero"/></clipPath><clipPath id="b45596529b"><rect x="0" width="13" y="0" height="73"/></clipPath><clipPath id="c71ca26496"><path d="M 998.023438 358.457031 L 1009.523438 358.457031 L 1009.523438 430.65625 L 998.023438 430.65625 Z M 998.023438 358.457031 " clip-rule="nonzero"/></clipPath><clipPath id="33e2382d25"><path d="M 0.0234375 0.457031 L 11.523438 0.457031 L 11.523438 72.65625 L 0.0234375 72.65625 Z M 0.0234375 0.457031 " clip-rule="nonzero"/></clipPath><clipPath id="ae08bcb313"><rect x="0" width="12" y="0" height="73"/></clipPath><clipPath id="5e632390ea"><path d="M 897.269531 358.457031 L 908.773438 358.457031 L 908.773438 430.65625 L 897.269531 430.65625 Z M 897.269531 358.457031 " clip-rule="nonzero"/></clipPath><clipPath id="f55945ec69"><path d="M 0.269531 0.457031 L 11.773438 0.457031 L 11.773438 72.65625 L 0.269531 72.65625 Z M 0.269531 0.457031 " clip-rule="nonzero"/></clipPath><clipPath id="26b6729cd1"><rect x="0" width="12" y="0" height="73"/></clipPath><clipPath id="a0a82a0039"><path d="M 796.515625 359.0625 L 808.019531 359.0625 L 808.019531 431.261719 L 796.515625 431.261719 Z M 796.515625 359.0625 " clip-rule="nonzero"/></clipPath><clipPath id="451c6973b4"><path d="M 0.515625 0.0625 L 12.019531 0.0625 L 12.019531 72.261719 L 0.515625 72.261719 Z M 0.515625 0.0625 " clip-rule="nonzero"/></clipPath><clipPath id="7d5e05162d"><rect x="0" width="13" y="0" height="73"/></clipPath><clipPath id="95fcbcec9b"><path d="M 695.789062 358.757812 L 707.292969 358.757812 L 707.292969 430.957031 L 695.789062 430.957031 Z M 695.789062 358.757812 " clip-rule="nonzero"/></clipPath><clipPath id="5eabba283d"><path d="M 0.789062 0.757812 L 12.292969 0.757812 L 12.292969 72.957031 L 0.789062 72.957031 Z M 0.789062 0.757812 " clip-rule="nonzero"/></clipPath><clipPath id="933b10f046"><rect x="0" width="13" y="0" height="73"/></clipPath><clipPath id="57b125ac12"><path d="M 595.035156 358.757812 L 606.539062 358.757812 L 606.539062 430.957031 L 595.035156 430.957031 Z M 595.035156 358.757812 " clip-rule="nonzero"/></clipPath><clipPath id="9939160201"><path d="M 0.0351562 0.757812 L 11.539062 0.757812 L 11.539062 72.957031 L 0.0351562 72.957031 Z M 0.0351562 0.757812 " clip-rule="nonzero"/></clipPath><clipPath id="ed745f89cb"><rect x="0" width="12" y="0" height="73"/></clipPath><clipPath id="52487712a0"><path d="M 494.28125 358.757812 L 505.785156 358.757812 L 505.785156 430.957031 L 494.28125 430.957031 Z M 494.28125 358.757812 " clip-rule="nonzero"/></clipPath><clipPath id="bf315f7448"><path d="M 0.28125 0.757812 L 11.785156 0.757812 L 11.785156 72.957031 L 0.28125 72.957031 Z M 0.28125 0.757812 " clip-rule="nonzero"/></clipPath><clipPath id="40ad47e5f4"><rect x="0" width="12" y="0" height="73"/></clipPath><clipPath id="c3b0f82d6e"><path d="M 393.558594 358.457031 L 405.0625 358.457031 L 405.0625 430.65625 L 393.558594 430.65625 Z M 393.558594 358.457031 " clip-rule="nonzero"/></clipPath><clipPath id="d91158fa25"><path d="M 0.558594 0.457031 L 12.0625 0.457031 L 12.0625 72.65625 L 0.558594 72.65625 Z M 0.558594 0.457031 " clip-rule="nonzero"/></clipPath><clipPath id="3b79635e56"><rect x="0" width="13" y="0" height="73"/></clipPath><clipPath id="f73be1c8b9"><path d="M 292.804688 358.457031 L 304.308594 358.457031 L 304.308594 430.65625 L 292.804688 430.65625 Z M 292.804688 358.457031 " clip-rule="nonzero"/></clipPath><clipPath id="69d63a887b"><path d="M 0.804688 0.457031 L 12.308594 0.457031 L 12.308594 72.65625 L 0.804688 72.65625 Z M 0.804688 0.457031 " clip-rule="nonzero"/></clipPath><clipPath id="298536bf7b"><rect x="0" width="13" y="0" height="73"/></clipPath><clipPath id="98a1e53098"><path d="M 192.050781 358.152344 L 203.554688 358.152344 L 203.554688 430.355469 L 192.050781 430.355469 Z M 192.050781 358.152344 " clip-rule="nonzero"/></clipPath><clipPath id="1d1d9cc7b6"><path d="M 0.0507812 0.152344 L 11.554688 0.152344 L 11.554688 72.355469 L 0.0507812 72.355469 Z M 0.0507812 0.152344 " clip-rule="nonzero"/></clipPath><clipPath id="38a8b1cf3c"><rect x="0" width="12" y="0" height="73"/></clipPath><clipPath id="b09ee6bb1b"><path d="M 91.328125 357.851562 L 102.828125 357.851562 L 102.828125 430.050781 L 91.328125 430.050781 Z M 91.328125 357.851562 " clip-rule="nonzero"/></clipPath><clipPath id="3f3ef0c7b4"><path d="M 0.328125 0.851562 L 11.828125 0.851562 L 11.828125 73.050781 L 0.328125 73.050781 Z M 0.328125 0.851562 " clip-rule="nonzero"/></clipPath><clipPath id="147eb74a04"><rect x="0" width="12" y="0" height="74"/></clipPath></defs><g clip-path="url(#c3fa6f45b8)"><g transform="matrix(1, 0, 0, 1, 0, 360)"><g clip-path="url(#47845c4984)"><g clip-path="url(#efc6f802ce)"><path fill="#6a9e02" d="M 0 0.472656 L 1440.128906 0.472656 L 1440.128906 68.035156 L 0 68.035156 Z M 0 0.472656 " fill-opacity="1" fill-rule="nonzero"/></g></g></g></g><g clip-path="url(#ba92099af4)"><g transform="matrix(1, 0, 0, 1, 1400, 358)"><g clip-path="url(#f9fba469fd)"><g clip-path="url(#6e609d2fb0)"><path fill="#acac1d" d="M 0.976562 0.457031 L 12.480469 0.457031 L 12.480469 72.667969 L 0.976562 72.667969 Z M 0.976562 0.457031 " fill-opacity="1" fill-rule="nonzero"/></g></g></g></g><g clip-path="url(#b71820d67d)"><g transform="matrix(1, 0, 0, 1, 1300, 358)"><g clip-path="url(#3597e3ca09)"><g clip-path="url(#a9c8f8fea4)"><path fill="#acac1d" d="M 0.253906 0.152344 L 11.757812 0.152344 L 11.757812 72.367188 L 0.253906 72.367188 Z M 0.253906 0.152344 " fill-opacity="1" fill-rule="nonzero"/></g></g></g></g><g clip-path="url(#7973a3c943)"><g transform="matrix(1, 0, 0, 1, 1199, 358)"><g clip-path="url(#3bc1b2e2a7)"><g clip-path="url(#cd82d93a92)"><path fill="#acac1d" d="M 0.5 0.152344 L 12.003906 0.152344 L 12.003906 72.367188 L 0.5 72.367188 Z M 0.5 0.152344 " fill-opacity="1" fill-rule="nonzero"/></g></g></g></g><g clip-path="url(#16ae59692e)"><g transform="matrix(1, 0, 0, 1, 1098, 358)"><g clip-path="url(#b45596529b)"><g clip-path="url(#5f7be63d34)"><path fill="#acac1d" d="M 0.746094 0.757812 L 12.25 0.757812 L 12.25 72.972656 L 0.746094 72.972656 Z M 0.746094 0.757812 " fill-opacity="1" fill-rule="nonzero"/></g></g></g></g><g clip-path="url(#c71ca26496)"><g transform="matrix(1, 0, 0, 1, 998, 358)"><g clip-path="url(#ae08bcb313)"><g clip-path="url(#33e2382d25)"><path fill="#acac1d" d="M 0.0234375 0.457031 L 11.527344 0.457031 L 11.527344 72.667969 L 0.0234375 72.667969 Z M 0.0234375 0.457031 " fill-opacity="1" fill-rule="nonzero"/></g></g></g></g><g clip-path="url(#5e632390ea)"><g transform="matrix(1, 0, 0, 1, 897, 358)"><g clip-path="url(#26b6729cd1)"><g clip-path="url(#f55945ec69)"><path fill="#acac1d" d="M 0.269531 0.457031 L 11.773438 0.457031 L 11.773438 72.667969 L 0.269531 72.667969 Z M 0.269531 0.457031 " fill-opacity="1" fill-rule="nonzero"/></g></g></g></g><g clip-path="url(#a0a82a0039)"><g transform="matrix(1, 0, 0, 1, 796, 359)"><g clip-path="url(#7d5e05162d)"><g clip-path="url(#451c6973b4)"><path fill="#acac1d" d="M 0.515625 0.0625 L 12.019531 0.0625 L 12.019531 72.273438 L 0.515625 72.273438 Z M 0.515625 0.0625 " fill-opacity="1" fill-rule="nonzero"/></g></g></g></g><g clip-path="url(#95fcbcec9b)"><g transform="matrix(1, 0, 0, 1, 695, 358)"><g clip-path="url(#933b10f046)"><g clip-path="url(#5eabba283d)"><path fill="#acac1d" d="M 0.789062 0.757812 L 12.292969 0.757812 L 12.292969 72.972656 L 0.789062 72.972656 Z M 0.789062 0.757812 " fill-opacity="1" fill-rule="nonzero"/></g></g></g></g><g clip-path="url(#57b125ac12)"><g transform="matrix(1, 0, 0, 1, 595, 358)"><g clip-path="url(#ed745f89cb)"><g clip-path="url(#9939160201)"><path fill="#acac1d" d="M 0.0351562 0.757812 L 11.539062 0.757812 L 11.539062 72.972656 L 0.0351562 72.972656 Z M 0.0351562 0.757812 " fill-opacity="1" fill-rule="nonzero"/></g></g></g></g><g clip-path="url(#52487712a0)"><g transform="matrix(1, 0, 0, 1, 494, 358)"><g clip-path="url(#40ad47e5f4)"><g clip-path="url(#bf315f7448)"><path fill="#acac1d" d="M 0.28125 0.757812 L 11.785156 0.757812 L 11.785156 72.972656 L 0.28125 72.972656 Z M 0.28125 0.757812 " fill-opacity="1" fill-rule="nonzero"/></g></g></g></g><g clip-path="url(#c3b0f82d6e)"><g transform="matrix(1, 0, 0, 1, 393, 358)"><g clip-path="url(#3b79635e56)"><g clip-path="url(#d91158fa25)"><path fill="#acac1d" d="M 0.558594 0.457031 L 12.0625 0.457031 L 12.0625 72.667969 L 0.558594 72.667969 Z M 0.558594 0.457031 " fill-opacity="1" fill-rule="nonzero"/></g></g></g></g><g clip-path="url(#f73be1c8b9)"><g transform="matrix(1, 0, 0, 1, 292, 358)"><g clip-path="url(#298536bf7b)"><g clip-path="url(#69d63a887b)"><path fill="#acac1d" d="M 0.804688 0.457031 L 12.308594 0.457031 L 12.308594 72.667969 L 0.804688 72.667969 Z M 0.804688 0.457031 " fill-opacity="1" fill-rule="nonzero"/></g></g></g></g><g clip-path="url(#98a1e53098)"><g transform="matrix(1, 0, 0, 1, 192, 358)"><g clip-path="url(#38a8b1cf3c)"><g clip-path="url(#1d1d9cc7b6)"><path fill="#acac1d" d="M 0.0507812 0.152344 L 11.554688 0.152344 L 11.554688 72.367188 L 0.0507812 72.367188 Z M 0.0507812 0.152344 " fill-opacity="1" fill-rule="nonzero"/></g></g></g></g><g clip-path="url(#b09ee6bb1b)"><g transform="matrix(1, 0, 0, 1, 91, 357)"><g clip-path="url(#147eb74a04)"><g clip-path="url(#3f3ef0c7b4)"><path fill="#acac1d" d="M 0.328125 0.851562 L 11.828125 0.851562 L 11.828125 73.0625 L 0.328125 73.0625 Z M 0.328125 0.851562 " fill-opacity="1" fill-rule="nonzero"/></g></g></g></g></svg>

