<svg xmlns="http://www.w3.org/2000/svg" xmlns:xlink="http://www.w3.org/1999/xlink" viewBox="290 79 32 613" preserveAspectRatio="xMidYMid meet" version="1.0"><defs><clipPath id="aa40a78d45"><path d="M 291.769531 79.789062 L 320.484375 79.789062 L 320.484375 691.789062 L 291.769531 691.789062 Z M 291.769531 79.789062 " clip-rule="nonzero"/></clipPath><clipPath id="d5dbb3c951"><path d="M 0.769531 0.789062 L 29.484375 0.789062 L 29.484375 612.789062 L 0.769531 612.789062 Z M 0.769531 0.789062 " clip-rule="nonzero"/></clipPath><clipPath id="e70dba05b1"><rect x="0" width="30" y="0" height="613"/></clipPath><clipPath id="08bfa45e68"><path d="M 290.652344 675.203125 L 321.339844 675.203125 L 321.339844 680.089844 L 290.652344 680.089844 Z M 290.652344 675.203125 " clip-rule="nonzero"/></clipPath><clipPath id="c1fc0fef69"><path d="M 0.652344 0.203125 L 31.339844 0.203125 L 31.339844 5.089844 L 0.652344 5.089844 Z M 0.652344 0.203125 " clip-rule="nonzero"/></clipPath><clipPath id="af69c19f59"><rect x="0" width="32" y="0" height="6"/></clipPath><clipPath id="328d9e2d36"><path d="M 290.78125 632.394531 L 321.46875 632.394531 L 321.46875 637.285156 L 290.78125 637.285156 Z M 290.78125 632.394531 " clip-rule="nonzero"/></clipPath><clipPath id="9908a85220"><path d="M 0.78125 0.394531 L 31.46875 0.394531 L 31.46875 5.285156 L 0.78125 5.285156 Z M 0.78125 0.394531 " clip-rule="nonzero"/></clipPath><clipPath id="398e0f6f4c"><rect x="0" width="32" y="0" height="6"/></clipPath><clipPath id="e528fe9a76"><path d="M 290.78125 589.574219 L 321.46875 589.574219 L 321.46875 594.464844 L 290.78125 594.464844 Z M 290.78125 589.574219 " clip-rule="nonzero"/></clipPath><clipPath id="dd29c7a53e"><path d="M 0.78125 0.574219 L 31.46875 0.574219 L 31.46875 5.464844 L 0.78125 5.464844 Z M 0.78125 0.574219 " clip-rule="nonzero"/></clipPath><clipPath id="4cbc9541ef"><rect x="0" width="32" y="0" height="6"/></clipPath><clipPath id="a18ddf3783"><path d="M 290.523438 546.753906 L 321.210938 546.753906 L 321.210938 551.644531 L 290.523438 551.644531 Z M 290.523438 546.753906 " clip-rule="nonzero"/></clipPath><clipPath id="6d04033832"><path d="M 0.523438 0.753906 L 31.210938 0.753906 L 31.210938 5.644531 L 0.523438 5.644531 Z M 0.523438 0.753906 " clip-rule="nonzero"/></clipPath><clipPath id="bff7103ff2"><rect x="0" width="32" y="0" height="6"/></clipPath><clipPath id="c2eb15baa7"><path d="M 290.652344 503.945312 L 321.339844 503.945312 L 321.339844 508.835938 L 290.652344 508.835938 Z M 290.652344 503.945312 " clip-rule="nonzero"/></clipPath><clipPath id="1a5e6459c3"><path d="M 0.652344 0.945312 L 31.339844 0.945312 L 31.339844 5.835938 L 0.652344 5.835938 Z M 0.652344 0.945312 " clip-rule="nonzero"/></clipPath><clipPath id="682b11b674"><rect x="0" width="32" y="0" height="6"/></clipPath><clipPath id="47b4edd174"><path d="M 290.652344 461.125 L 321.339844 461.125 L 321.339844 466.015625 L 290.652344 466.015625 Z M 290.652344 461.125 " clip-rule="nonzero"/></clipPath><clipPath id="b50bfc409f"><path d="M 0.652344 0.125 L 31.339844 0.125 L 31.339844 5.015625 L 0.652344 5.015625 Z M 0.652344 0.125 " clip-rule="nonzero"/></clipPath><clipPath id="234cb6ff99"><rect x="0" width="32" y="0" height="6"/></clipPath><clipPath id="b1b49ed70f"><path d="M 290.394531 418.304688 L 321.082031 418.304688 L 321.082031 423.195312 L 290.394531 423.195312 Z M 290.394531 418.304688 " clip-rule="nonzero"/></clipPath><clipPath id="ff6f92aab8"><path d="M 0.394531 0.304688 L 31.082031 0.304688 L 31.082031 5.195312 L 0.394531 5.195312 Z M 0.394531 0.304688 " clip-rule="nonzero"/></clipPath><clipPath id="405f79a73d"><rect x="0" width="32" y="0" height="6"/></clipPath><clipPath id="c4762ea6f4"><path d="M 290.523438 375.496094 L 321.210938 375.496094 L 321.210938 380.386719 L 290.523438 380.386719 Z M 290.523438 375.496094 " clip-rule="nonzero"/></clipPath><clipPath id="40e3dac6d8"><path d="M 0.523438 0.496094 L 31.210938 0.496094 L 31.210938 5.386719 L 0.523438 5.386719 Z M 0.523438 0.496094 " clip-rule="nonzero"/></clipPath><clipPath id="13284cef9e"><rect x="0" width="32" y="0" height="6"/></clipPath><clipPath id="097caa128b"><path d="M 290.523438 332.675781 L 321.210938 332.675781 L 321.210938 337.566406 L 290.523438 337.566406 Z M 290.523438 332.675781 " clip-rule="nonzero"/></clipPath><clipPath id="40eabab2c6"><path d="M 0.523438 0.675781 L 31.210938 0.675781 L 31.210938 5.566406 L 0.523438 5.566406 Z M 0.523438 0.675781 " clip-rule="nonzero"/></clipPath><clipPath id="d71b2d27a3"><rect x="0" width="32" y="0" height="6"/></clipPath><clipPath id="968ed39d40"><path d="M 290.523438 293.605469 L 321.210938 293.605469 L 321.210938 298.496094 L 290.523438 298.496094 Z M 290.523438 293.605469 " clip-rule="nonzero"/></clipPath><clipPath id="0034db0ca9"><path d="M 0.523438 0.605469 L 31.210938 0.605469 L 31.210938 5.496094 L 0.523438 5.496094 Z M 0.523438 0.605469 " clip-rule="nonzero"/></clipPath><clipPath id="c19862b2c7"><rect x="0" width="32" y="0" height="6"/></clipPath><clipPath id="c985d61cf5"><path d="M 290.652344 250.800781 L 321.339844 250.800781 L 321.339844 255.6875 L 290.652344 255.6875 Z M 290.652344 250.800781 " clip-rule="nonzero"/></clipPath><clipPath id="e2bf2c31f6"><path d="M 0.652344 0.800781 L 31.339844 0.800781 L 31.339844 5.6875 L 0.652344 5.6875 Z M 0.652344 0.800781 " clip-rule="nonzero"/></clipPath><clipPath id="f4232e11be"><rect x="0" width="32" y="0" height="6"/></clipPath><clipPath id="27dd64ddf1"><path d="M 290.652344 207.980469 L 321.339844 207.980469 L 321.339844 212.867188 L 290.652344 212.867188 Z M 290.652344 207.980469 " clip-rule="nonzero"/></clipPath><clipPath id="2298288384"><path d="M 0.652344 0.980469 L 31.339844 0.980469 L 31.339844 5.867188 L 0.652344 5.867188 Z M 0.652344 0.980469 " clip-rule="nonzero"/></clipPath><clipPath id="a54dde3035"><rect x="0" width="32" y="0" height="6"/></clipPath><clipPath id="0be6d48fae"><path d="M 290.78125 165.160156 L 321.46875 165.160156 L 321.46875 170.046875 L 290.78125 170.046875 Z M 290.78125 165.160156 " clip-rule="nonzero"/></clipPath><clipPath id="3fac26e44c"><path d="M 0.78125 0.160156 L 31.46875 0.160156 L 31.46875 5.046875 L 0.78125 5.046875 Z M 0.78125 0.160156 " clip-rule="nonzero"/></clipPath><clipPath id="53ab1d3a6d"><rect x="0" width="32" y="0" height="6"/></clipPath><clipPath id="01877bfbe6"><path d="M 290.910156 122.351562 L 321.597656 122.351562 L 321.597656 127.238281 L 290.910156 127.238281 Z M 290.910156 122.351562 " clip-rule="nonzero"/></clipPath><clipPath id="7b1251b5fe"><path d="M 0.910156 0.351562 L 31.597656 0.351562 L 31.597656 5.238281 L 0.910156 5.238281 Z M 0.910156 0.351562 " clip-rule="nonzero"/></clipPath><clipPath id="c9b9defc0d"><rect x="0" width="32" y="0" height="6"/></clipPath></defs><g clip-path="url(#aa40a78d45)"><g transform="matrix(1, 0, 0, 1, 291, 79)"><g clip-path="url(#e70dba05b1)"><g clip-path="url(#d5dbb3c951)"><path fill="#6a9e02" d="M 29.484375 0.789062 L 29.484375 612.839844 L 0.769531 612.839844 L 0.769531 0.789062 Z M 29.484375 0.789062 " fill-opacity="1" fill-rule="nonzero"/></g></g></g></g><g clip-path="url(#08bfa45e68)"><g transform="matrix(1, 0, 0, 1, 290, 675)"><g clip-path="url(#af69c19f59)"><g clip-path="url(#c1fc0fef69)"><path fill="#acac1d" d="M 31.339844 0.203125 L 31.339844 5.089844 L 0.648438 5.089844 L 0.648438 0.203125 Z M 31.339844 0.203125 " fill-opacity="1" fill-rule="nonzero"/></g></g></g></g><g clip-path="url(#328d9e2d36)"><g transform="matrix(1, 0, 0, 1, 290, 632)"><g clip-path="url(#398e0f6f4c)"><g clip-path="url(#9908a85220)"><path fill="#acac1d" d="M 31.46875 0.394531 L 31.46875 5.285156 L 0.777344 5.285156 L 0.777344 0.394531 Z M 31.46875 0.394531 " fill-opacity="1" fill-rule="nonzero"/></g></g></g></g><g clip-path="url(#e528fe9a76)"><g transform="matrix(1, 0, 0, 1, 290, 589)"><g clip-path="url(#4cbc9541ef)"><g clip-path="url(#dd29c7a53e)"><path fill="#acac1d" d="M 31.46875 0.574219 L 31.46875 5.464844 L 0.777344 5.464844 L 0.777344 0.574219 Z M 31.46875 0.574219 " fill-opacity="1" fill-rule="nonzero"/></g></g></g></g><g clip-path="url(#a18ddf3783)"><g transform="matrix(1, 0, 0, 1, 290, 546)"><g clip-path="url(#bff7103ff2)"><g clip-path="url(#6d04033832)"><path fill="#acac1d" d="M 31.210938 0.753906 L 31.210938 5.644531 L 0.519531 5.644531 L 0.519531 0.753906 Z M 31.210938 0.753906 " fill-opacity="1" fill-rule="nonzero"/></g></g></g></g><g clip-path="url(#c2eb15baa7)"><g transform="matrix(1, 0, 0, 1, 290, 503)"><g clip-path="url(#682b11b674)"><g clip-path="url(#1a5e6459c3)"><path fill="#acac1d" d="M 31.339844 0.945312 L 31.339844 5.835938 L 0.648438 5.835938 L 0.648438 0.945312 Z M 31.339844 0.945312 " fill-opacity="1" fill-rule="nonzero"/></g></g></g></g><g clip-path="url(#47b4edd174)"><g transform="matrix(1, 0, 0, 1, 290, 461)"><g clip-path="url(#234cb6ff99)"><g clip-path="url(#b50bfc409f)"><path fill="#acac1d" d="M 31.339844 0.125 L 31.339844 5.015625 L 0.648438 5.015625 L 0.648438 0.125 Z M 31.339844 0.125 " fill-opacity="1" fill-rule="nonzero"/></g></g></g></g><g clip-path="url(#b1b49ed70f)"><g transform="matrix(1, 0, 0, 1, 290, 418)"><g clip-path="url(#405f79a73d)"><g clip-path="url(#ff6f92aab8)"><path fill="#acac1d" d="M 31.082031 0.304688 L 31.082031 5.195312 L 0.390625 5.195312 L 0.390625 0.304688 Z M 31.082031 0.304688 " fill-opacity="1" fill-rule="nonzero"/></g></g></g></g><g clip-path="url(#c4762ea6f4)"><g transform="matrix(1, 0, 0, 1, 290, 375)"><g clip-path="url(#13284cef9e)"><g clip-path="url(#40e3dac6d8)"><path fill="#acac1d" d="M 31.210938 0.496094 L 31.210938 5.386719 L 0.519531 5.386719 L 0.519531 0.496094 Z M 31.210938 0.496094 " fill-opacity="1" fill-rule="nonzero"/></g></g></g></g><g clip-path="url(#097caa128b)"><g transform="matrix(1, 0, 0, 1, 290, 332)"><g clip-path="url(#d71b2d27a3)"><g clip-path="url(#40eabab2c6)"><path fill="#acac1d" d="M 31.210938 0.675781 L 31.210938 5.566406 L 0.519531 5.566406 L 0.519531 0.675781 Z M 31.210938 0.675781 " fill-opacity="1" fill-rule="nonzero"/></g></g></g></g><g clip-path="url(#968ed39d40)"><g transform="matrix(1, 0, 0, 1, 290, 293)"><g clip-path="url(#c19862b2c7)"><g clip-path="url(#0034db0ca9)"><path fill="#acac1d" d="M 31.210938 0.605469 L 31.210938 5.496094 L 0.519531 5.496094 L 0.519531 0.605469 Z M 31.210938 0.605469 " fill-opacity="1" fill-rule="nonzero"/></g></g></g></g><g clip-path="url(#c985d61cf5)"><g transform="matrix(1, 0, 0, 1, 290, 250)"><g clip-path="url(#f4232e11be)"><g clip-path="url(#e2bf2c31f6)"><path fill="#acac1d" d="M 31.339844 0.800781 L 31.339844 5.6875 L 0.648438 5.6875 L 0.648438 0.800781 Z M 31.339844 0.800781 " fill-opacity="1" fill-rule="nonzero"/></g></g></g></g><g clip-path="url(#27dd64ddf1)"><g transform="matrix(1, 0, 0, 1, 290, 207)"><g clip-path="url(#a54dde3035)"><g clip-path="url(#2298288384)"><path fill="#acac1d" d="M 31.339844 0.980469 L 31.339844 5.867188 L 0.648438 5.867188 L 0.648438 0.980469 Z M 31.339844 0.980469 " fill-opacity="1" fill-rule="nonzero"/></g></g></g></g><g clip-path="url(#0be6d48fae)"><g transform="matrix(1, 0, 0, 1, 290, 165)"><g clip-path="url(#53ab1d3a6d)"><g clip-path="url(#3fac26e44c)"><path fill="#acac1d" d="M 31.46875 0.160156 L 31.46875 5.046875 L 0.777344 5.046875 L 0.777344 0.160156 Z M 31.46875 0.160156 " fill-opacity="1" fill-rule="nonzero"/></g></g></g></g><g clip-path="url(#01877bfbe6)"><g transform="matrix(1, 0, 0, 1, 290, 122)"><g clip-path="url(#c9b9defc0d)"><g clip-path="url(#7b1251b5fe)"><path fill="#acac1d" d="M 31.597656 0.351562 L 31.597656 5.238281 L 0.90625 5.238281 L 0.90625 0.351562 Z M 31.597656 0.351562 " fill-opacity="1" fill-rule="nonzero"/></g></g></g></g></svg>
